inDegrees=no
num_controls=7
num_derivatives=13
num_iterations=109
num_multipliers=7
num_parameters=0
num_slacks=7
num_states=26
objective=0.431232
objective_accelerations=0.050163
objective_balance=0.006860
objective_effort=0.031500
objective_height=0.341535
objective_ligament=0.001172
solver_duration=1399.510892
status=Solve_Succeeded
success=true
DataType=double
version=3
OpenSimVersion=4.5
endheader
time	/jointset/ground_pelvis/pelvis_tilt/value	/jointset/ground_pelvis/pelvis_tx/value	/jointset/ground_pelvis/pelvis_ty/value	/jointset/hip_l/hip_flexion_l/value	/jointset/hip_l/hip_adduction_l/value	/jointset/hip_l/hip_rotation_l/value	/jointset/back/lumbar_extension/value	/jointset/patellofemoral_l/patellar_flexion_l/value	/jointset/knee_l/knee_flexion_l/value	/jointset/knee_l/knee_adduction_l/value	/jointset/knee_l/knee_rotation_l/value	/jointset/ankle_l/ankle_angle_l/value	/jointset/subtalar_l/subtalar_angle_l/value	/jointset/ground_pelvis/pelvis_tilt/speed	/jointset/ground_pelvis/pelvis_tx/speed	/jointset/ground_pelvis/pelvis_ty/speed	/jointset/hip_l/hip_flexion_l/speed	/jointset/hip_l/hip_adduction_l/speed	/jointset/hip_l/hip_rotation_l/speed	/jointset/back/lumbar_extension/speed	/jointset/patellofemoral_l/patellar_flexion_l/speed	/jointset/knee_l/knee_flexion_l/speed	/jointset/knee_l/knee_adduction_l/speed	/jointset/knee_l/knee_rotation_l/speed	/jointset/ankle_l/ankle_angle_l/speed	/jointset/subtalar_l/subtalar_angle_l/speed	/forceset/tau_hip_flexion_l	/forceset/tau_hip_adduction_l	/forceset/tau_hip_rotation_l	/forceset/tau_knee_flexion_l	/forceset/tau_ankle_angle_l	/forceset/tau_subtalar_angle_l	/forceset/tau_lumbar_extension	lambda_cid13_p0	lambda_cid13_p1	lambda_cid13_p2	lambda_cid13_p3	lambda_cid13_p4	lambda_cid13_p5	lambda_cid14_p0	/jointset/ground_pelvis/pelvis_tilt/accel	/jointset/ground_pelvis/pelvis_tx/accel	/jointset/ground_pelvis/pelvis_ty/accel	/jointset/hip_l/hip_flexion_l/accel	/jointset/hip_l/hip_adduction_l/accel	/jointset/hip_l/hip_rotation_l/accel	/jointset/back/lumbar_extension/accel	/jointset/patellofemoral_l/patellar_flexion_l/accel	/jointset/knee_l/knee_flexion_l/accel	/jointset/knee_l/knee_adduction_l/accel	/jointset/knee_l/knee_rotation_l/accel	/jointset/ankle_l/ankle_angle_l/accel	/jointset/subtalar_l/subtalar_angle_l/accel	gamma_cid13_p0	gamma_cid13_p1	gamma_cid13_p2	gamma_cid13_p3	gamma_cid13_p4	gamma_cid13_p5	gamma_cid14_p0
0.5	-0.33407544361402	-0.03069307830996337	0.7670649067917868	1.164044076796644	-0.305269670678521	0.008626848191926816	-0.3226160234647725	0.8098521858400199	0.8098521858400562	-0.1739057052651473	0.1670244042794227	0.160961411365289	-0.0202756576828944	-0.4369068481520019	-0.1652593966807778	-0.5062234894440087	2.120673592270334	0.01065994132644908	0.6966810667296411	-0.6271123990279668	2.100292048195752	2.100292048195674	-0.00412765117499011	0.04457060192418936	0.5391104035204759	0.09997268740002822	-0.1860210566047653	0.03803091683056595	-0.02627042494935082	-0.2576255786256673	0.1066294715742639	0.02137894069369382	0.1852193834561321	-4.291732143296778	-10.49961818517319	3.517375419440343	-2.265483876070289	-603.8439752561752	-43.0337049172988	-20.92165959937992	0.4828504849196018	0.5499485483177698	-0.4387592224860821	-1.264732771740103	0.6834933125103024	-0.3509060985122587	1.587467135129675	-1.308922016725587	-1.30892201672563	0.05886072403072989	-0.09532556060380384	-0.5428877446906629	0.702144682557477	-4.292577916363897e-07	-4.890404144103688e-07	2.64916557085341e-06	2.882034825522358e-07	-5.210065474189961e-07	-3.010265452618812e-07	-4.174253281893671e-07
0.51	-0.3384194218717687	-0.03231795174374863	0.7619818390449467	1.185183893100534	-0.3051304246411334	0.01557730332034672	-0.3288073570447519	0.8307861023674085	0.8307861023674681	-0.1739477209217546	0.1674649753396143	0.1663240160766396	-0.01924260617635814	-0.431834492942621	-0.1596991654343776	-0.510279654602537	2.106999331400116	0.017162799819328	0.6933202090883269	-0.6110727423050237	2.086198526648318	2.086198526648271	-0.004270034706259215	0.04354188577475571	0.5333242475956355	0.106613258270118	-0.1923482610755241	0.03835312395007229	-0.02634699801140368	-0.2604672219897857	0.1050869888824963	0.02162621753411909	0.1905261076989534	-5.018560355906104	-10.35116034166028	3.346828018582044	-2.028818118528678	-608.2807797401282	-42.77855135303412	-19.6412628995249	0.527540243309277	0.5615357161544772	-0.3725844405712546	-1.462370246452661	0.6293702589522011	-0.3425007546755894	1.624451140311073	-1.503395924386274	-1.50339592438147	-0.04994897930090868	-0.10741419779879	-0.6094064949835715	0.6411278481279181	-3.973080699823899e-07	-3.997498226949125e-07	2.528387313978353e-06	2.808989204847682e-07	-4.844926495969088e-07	-2.118253977532077e-07	-3.927058503782012e-07
0.52	-0.3427110541365511	-0.03388672780439922	0.7568615017909143	1.206178247295364	-0.3049270123905619	0.02249138484080656	-0.3348358468176151	0.8515703179391959	0.8515703179392791	-0.1739909926311938	0.1678951053271744	0.1716261738330213	-0.01814392604934234	-0.4264376495587626	-0.1540399220538437	-0.5136773908824677	2.091581170458294	0.02349318396322755	0.6894063451376297	-0.5945436376047025	2.070351857075529	2.070351857075514	-0.004378861741335418	0.04248238739789631	0.5270210125266811	0.1130984114959356	-0.198675465546283	0.03867533106957857	-0.02642357107345686	-0.2633088653539042	0.1035445061907287	0.02187349437454428	0.1958328319417747	-5.750928209089785	-10.20419614099298	3.179334642472741	-1.80665702438719	-612.8189767882932	-42.60910185240837	-18.35956688732249	0.5477481198150952	0.5697509751445007	-0.3070734467665618	-1.613512786061102	0.6489984427144267	-0.4615073603888301	1.685356730605322	-1.659551621796419	-1.659551621796438	0.06557202326931001	-0.1014820060889526	-0.6463035735134526	0.671061153703059	-3.679816698796582e-07	-3.047155733384887e-07	2.418292097269867e-06	2.765824909558184e-07	-4.523911129414107e-07	-1.255748715647501e-07	-3.689333166892872e-07
0.53	-0.3469472230463161	-0.03539847793322853	0.7517105152422656	1.227009963919752	-0.3046610403171702	0.02936364879093449	-0.3406966629324712	0.8721875055634418	0.8721875055634993	-0.1740349230950069	0.1683143884507203	0.17686286538726	-0.01698103500980935	-0.4207477502021459	-0.1482990851085839	-0.5164051308816654	2.074481347012044	0.02966944305997112	0.6849644973225026	-0.5775507422009367	2.052802591855728	2.052802591855709	-0.004405229959360647	0.04136848461146836	0.5202391155357994	0.1194492251953771	-0.2048607932849842	0.03879434256216322	-0.02644173533017211	-0.2662738524289431	0.1021493041669424	0.02199102744767793	0.2010046133976394	-6.442190247011279	-10.00301960832854	2.997414555286738	-1.573619423581311	-617.3744990872943	-42.39011241222066	-17.07962174593438	0.5868405243015344	0.5779577077888527	-0.2384931875987535	-1.800377086438336	0.5968443635276534	-0.4481286715342921	1.716582420096756	-1.845004070411859	-1.845004070412538	-0.03640985907643971	-0.1176762328693637	-0.7058382877130766	0.6122689421449673	-3.390407814972583e-07	-2.126902005383967e-07	2.307103655161565e-06	2.724108404425642e-07	-4.217091186597784e-07	-4.386296337673787e-08	-3.450859889756387e-07
0.54	-0.3511250470263717	-0.03685247816189083	0.7465356775114046	1.247662250317171	-0.3043343247087362	0.03618897322701928	-0.3463854847983227	0.8926207225158216	0.8926207225158537	-0.1740790509639479	0.1687222661828122	0.1820293968664225	-0.01575560034046588	-0.414768663616866	-0.1424899420204385	-0.5184476273249584	2.055695125064538	0.03564189097164792	0.6800184423289894	-0.5601447878037893	2.033557722702327	2.033557722702303	-0.004418342766905882	0.04020130910705447	0.5129889975114161	0.1256071374580297	-0.2110461210236852	0.03891335405474807	-0.02645989958688614	-0.2692388395039821	0.1007541021431562	0.02210856052081181	0.2061763948535042	-7.139266005853054	-9.802813207470448	2.817921758966656	-1.352782535559839	-622.0322096726642	-42.24940295040223	-15.80588225402822	0.6055855655477769	0.5834122037216104	-0.1700247355856359	-1.950792486312363	0.6082362057010738	-0.5623487960660799	1.76796852928163	-1.998672408516557	-1.998672408516556	0.06822310536530821	-0.1121365496861408	-0.739947780213746	0.6324808663452929	-3.105264167203319e-07	-1.2399379754531e-07	2.194705687078998e-06	2.683993709679518e-07	-3.925976818981677e-07	3.282749510865412e-08	-3.211559104261139e-07
0.55	-0.3552417390841554	-0.03824811873610467	0.7413438624897293	1.268118499410656	-0.3039487781143015	0.04296231878437366	-0.3518982853972058	0.9128532291473346	0.9128532291473819	-0.1741229382537083	0.1691181540111105	0.1871212234507379	-0.01446941174254571	-0.4085265094661166	-0.1366334895595846	-0.5197981533230219	2.035286232067113	0.04143075630397306	0.674569787740709	-0.5423610361592544	2.012673407267667	2.012673407267666	-0.004356518575204474	0.03897228499158505	0.5053053096331701	0.1315934210118511	-0.2170844581958559	0.03888783526242024	-0.02640973990446169	-0.272220736483934	0.09935195458367833	0.02211267016685196	0.2111912029965752	-7.839989044606422	-9.54709907190459	2.623170597366247	-1.074316137553613	-626.6248075737758	-42.04891381234712	-14.54272275549823	0.6399952478725095	0.5875174989399107	-0.100058322600704	-2.126237756577351	0.5584020889952559	-0.5485200795420505	1.791722854074615	-2.173778940201177	-2.173778940197706	-0.02440790844934127	-0.1293071826655445	-0.7932041756884868	0.5758889391750409	-2.807570514978727e-07	-4.074136087920259e-08	2.071444762738958e-06	2.613817937317585e-07	-3.615900305320175e-07	1.029935826852619e-07	-2.961775249946484e-07
0.5600000000000001	-0.3592947166188248	-0.03958504363937545	0.7361420438499366	1.288362599564143	-0.3035065047881441	0.04967869853797866	-0.3572316196052366	0.9328687990586488	0.9328687990587116	-0.174166121298456	0.1695015472302165	0.1921340881794592	-0.01312452294123242	-0.4020257589940077	-0.1307468078318248	-0.5204483509484451	2.013265337064897	0.04698723731617912	0.6686252815791073	-0.5242515096333118	1.990170378662591	1.990170378662613	-0.00427749376437897	0.0377023872685876	0.4971966263925854	0.1373471781366516	-0.2231227953680265	0.03886231647009248	-0.026359580222037	-0.2752026334638859	0.09794980702420045	0.0221167798128922	0.2162060111396463	-8.546144163741383	-9.291788627704285	2.430032969218563	-0.8093774372807711	-631.3122592632574	-41.91790388738461	-13.29309489319546	0.6573048298196577	0.5894580571028107	-0.02995906105757625	-2.273192887270624	0.5617593416772583	-0.6615191107303308	1.833123505563151	-2.322415042599688	-2.322415042599696	0.07166322919012692	-0.1203112711917434	-0.8249468526815176	0.5859755805410931	-2.49481685740774e-07	3.597831619452993e-08	1.935148290889954e-06	2.507568871816681e-07	-3.283069216404199e-07	1.653304251713289e-07	-2.699411713048542e-07
0.5700000000000001	-0.3632815200057182	-0.04086301696610036	0.7309372291298493	1.308378707310347	-0.3030097040022855	0.05633311084941308	-0.3623823495201784	0.9526514734215665	0.9526514734215795	-0.1742081059871617	0.1698720055394774	0.1970638859658086	-0.01172312126972106	-0.3952979187135557	-0.1248487763351061	-0.5203962724575504	1.9897006587762	0.05232975935772905	0.662180188243884	-0.5058580063724272	1.966106978620539	1.96610697862056	-0.004122338423038776	0.03638770118481638	0.4886992846961936	0.1428868997026724	-0.2289068123793365	0.03864909148241741	-0.02624878244004166	-0.2782651013097622	0.09666484859584001	0.02203679461841342	0.2209784804267563	-9.211052130147825	-9.003309209100877	2.227186778557224	-0.5255369679360025	-635.8668596390243	-41.77261057539453	-12.05952104600875	0.6860592621717639	0.5898868220335927	0.04047749986394972	-2.436461029380139	0.5137443656549815	-0.6477652240394364	1.847933783745535	-2.486878759990299	-2.48687875999054	-0.01294492482657429	-0.137656888558581	-0.871644680298396	0.5308003553304801	-2.179959594010084e-07	1.018721465671621e-07	1.78774032511138e-06	2.372605742074252e-07	-2.94272883115414e-07	2.171098220716085e-07	-2.430588823519041e-07
0.58	-0.3671999378628044	-0.04208202775264265	0.725736472433811	1.328151497127722	-0.3024608288499591	0.06292072007167104	-0.3673480503930326	0.9721857985290673	0.9721857985290303	-0.1742486164447406	0.1702291950655828	0.2019068069647581	-0.0102677564004099	-0.3883486530325525	-0.1189542997952992	-0.5196367461386174	1.964601751299068	0.05740211060972364	0.6552646637438163	-0.4872457012157665	1.940500527579191	1.94050052757921	-0.00398264753900018	0.03504863063749445	0.4798212689125864	0.1481398176966089	-0.2346908293906463	0.03843586649474238	-0.02613798465804577	-0.2813275691556387	0.09537989016747958	0.0219568094239347	0.2257509497138665	-9.881630426304122	-8.714641675913118	2.025231278882279	-0.2537408631859662	-640.5169596997084	-41.68819551066651	-10.84420490932864	0.7015899099298899	0.5887470657204682	0.1115305045500492	-2.580038724957537	0.5077251837661878	-0.7556053436992575	1.876883884718349	-2.631025242459025	-2.631025242459033	0.06857033772980675	-0.1251881639018826	-0.9010816701246134	0.5286148661242193	-1.86236275093119e-07	1.536671998406867e-07	1.62586157654081e-06	2.200247551924259e-07	-2.59260889718993e-07	2.551399875113276e-07	-2.153353753818213e-07
